<?xml version="1.0" encoding="UTF-8"?>
<svg id="a" data-name="图层 1" xmlns="http://www.w3.org/2000/svg" width="1200" height="450" viewBox="0 0 1200 450">
  <g>
    <path d="M1001.49,173.68c-2.32,3.57.46,10.87.64,15.19,1.07,7.1,1.33,15.57,9.62,12.04,19.61-9.52,45.83-25.23,62.41-10.63,5.01,4.29,7.68,11.36,4.39,17.45-4.68,9.16-16.39,17.22-24.72,23.67-4.27,3.4-10.68,7.75-12.12,12.12-2.55,8.76,14.27,14.28,19.5,20.16,3.24,2.84,6.29,6.35,6.42,9.32.22,4.3-4.09,5.6-8.18,4.36-6.88-2.16-12.46-7.55-18.25-11.71-8.79-7.35-18.98-14.99-18.95-25.78.05-3.47.95-6.54,2.3-10,.38-1.8,6.5-11.96,2.4-10.6-6.96,3.99-19.55,11.3-19.45,21.22-.61,5.44,2.7,12.04-1.55,15.7-7.93,2.63-13.58-8.44-17.44-14.58-3.4-5.77-7.56-12.01-6.09-18.99,2.14-7.78,5.36-15.91,4.92-24.3-.02-24.71,4.24-50.83-4.57-74.25-.9-1.39-1.85-2.26-3.36-1.85-3.84,1.83-7.33,4.69-12.49,2.17-15.46-7.11-27.47-19.73-40.82-30.31-4.39-3.68-10.58-7.42-15.49-2.49-2.74,2.39-5.47,6.29-5.84,9.06-.74,8.43,15.05,9.09,19.52,14.43,2.92,2.95,1.05,7.62,3.75,10.65,3.96,3.78,11.21,5.04,13.66,10.6,4.82,12.24-4.33,27.54-2.39,40.49.68,8.72,12.5,9.45,13.04,17.48.09,4.06-3.38,8.99-2.54,13.4,1.75,7.84,10.87,11.51,13.86,18.88,6.37,15.15-13.44,7.2-19.26,2.44-5.89-4.51-12.71-8.7-18.23-2.12-5.16,6.16-10.5,12.79-13.99,19.92-3.18,7.86-6.05,14.03-14.96,6.96-8.4-7.2-13.58-15.8-14.26-26.34-.52-12.96.07-27-.71-39.58.09-6.08-1.3-13.14.98-18.79,1.87-3.56,6.31-3.7,7.56-6.88,2.02-8.75-4.06-19.39-.13-27.53,1.73-3.72,9.64-14.47-.27-12.12-5.22,2.06-8.65,7.6-12.33,11.66-6.1,7.63-13.26,14.35-18.8,22.27-4.16,5.28-7.05,12.41-13.31,15.55-5.9,2.54-11.83-3.91-8.85-9.42,1.49-3.12,4.87-5.85,7.22-8.96,4.89-6.4,7.8-14.36,11.96-21.31,11.92-19.59,21.99-40.57,31.06-60.47,3.52-7.27,6.97-13.97,9.68-21.61,1.93-4.67,2.93-12.25,4.58-15.4,3.31-6.85,17.56.97,21.91,4.07,6.07,4.36,6.83,12.35,4.7,19.01-3.5,10.82-10.34,19.75,1.21,27.29,59.74,38.89,28.79,24.25,39.63-18.34,1.38-5.51,2.92-11.47,7.11-15.54,4.47-5.48,19.2-4.09,19.27-12.84-.65-7.95-11.72-17.31-12.65-24.9.65-4.09,6.37-.73,8.73.37,8.72,4.69,36.04,26.61,24.76,36.64-7.09,5.94-19.4,3.98-25.47,11.11-3.59,4.95-3.7,16.15,4.35,16,22.25-3.96,48.02-14.18,66.52-.05,8.96,6.31,10.76,15.32,1.6,22.49-6,5.23-12.02,9.97-18.37,14.96-3.34,2.56-6.77,6.13-4.93,10.56,9.76,15.73-.34,22.19-11.55,33.2-5.19,4.64-9.87,10.77-16.14,13.81-4.02,1.83-7.73-.61-10.73.92l-.07.06ZM1042.72,88.06c-.86-1.49-3.81-1.28-5.71-1.13-18.87,2.31-40.68,13.01-47.32,30.12-1.41,5.42,5.02,6.63,9.22,6.12,17.63-1.36,30.44-15.98,41.45-29.53,1.18-1.55,3.01-3.91,2.4-5.5l-.04-.09ZM916.52,195.15c-2.42-1.39-5.42.35-7.46,1.85-5.22,3.71-7.77,8.83-8.5,15.96-.89,7.16,1.58,10.64,8.44,6.03,6.07-3.73,9.96-8.31,10.04-15.77.1-2.7-.05-6.32-2.39-7.98l-.13-.09Z" style="fill: #000; stroke-width: 0px;"/>
    <path d="M446.03,399.19c-4.71,3.46-6.65-5.06-6.53-8.87-.38-45.85-2.53-90.7-1.51-136.88.02-20.73-22.52,3.78-35.31-8.12-2.99-1.77-6.79-9.45-10.06-4.47-4.14,8.43-6.57,22.12-13.59,25.33-6.69,2.36-13.72-4.36-18.76-8.13-12.63-9.22-1.62-24.89,4.55-37.32,7.36-16.26,10.77-34.27,18.49-57.63,4.6-15.9-.5-9.69-11.77-12.96-10.89-5.52-16.04-18.49-.67-22.1,13.87-4.3,27.13-9.73,40.39-16.5,3.56-1.86,7.49-3.93,9.74-6.97,3.96-6.7,7.56-15.81,11.38-23.06,2.44-5.57,6.56-11.59,6.85-17.21-.33-7.81-7.66-.34-9.78,2.59-8.72,10.68-20.52,18.84-31.51,27.61-5.88,5.26-14.24,9.19-21.34,3.54-18.13-12.94-11.54-30.32-8.81-48.74,2.49-24.56,14.15-10.44,28.34-4.56,19.76,7.78,19.03-28.16,14.55-38.89-3.49-9.71,7.93-4.9,12.67-2.86,22.39,7.13,7.12,41.87,20.1,36.16,2.63-1.37,6.06-3.64,9.47-3.7,7.68-.11,17.57,4.92,19.16,12.82.81,9.94-7.04,17.93-11.48,27.22-3.11,6.5-8.8,14.17-7.37,21.36.86,3.57,4.96,6.94,4.52,10.5-1.45,5.65-9.1,8.28-13.12,12.33-4.14.99-47.03,53.82-24.09,45.51,14.52-5.42,31.22-14.87,43.89-7.01,4.02,2.33,6.64,6.6,6.52,11.18.14,4.37-1.67,8.75,1.4,12.37,8.6,9.06,24.64,8.63,33.65,16.29,10.69,12.18-23.2,21.79-30.57,27.56-10.11,4.91-12.65,16.05-13.42,26.2-4.83,37.61-5.21,75.39-6.77,113.13-1,8.33-3.41,16.36-5.14,24.59-.63,3.22-1.79,7.58-3.98,9.59l-.1.09ZM417.1,207.59c4-2.47,7.81-5.46,9.8-9.77,1.73-3.99,3.94-7.44,3.07-10.46-1.46-1.89-5.8.22-8.35.7-3.5.96-7.15,1.87-10.66,2.77-10.3,2.65-12.21,3.56-13.98,13.84-.77,5.18-1.94,11.67-2.15,16.68.12,5.83,6-.37,7.93-1.96,4.91-4.5,8.82-8.46,14.15-11.67l.19-.12ZM400.55,70c1.81-3.23-2.88-5.81-5.67-7.13-2.4-1.02-4.98-2.86-7.59-2.7-3.52.7-2.52,7.62-2.45,10.39.4,4.8,4.2,4.5,7.96,3.28,2.59-.73,6.24-1.65,7.66-3.71l.09-.13Z" style="fill: #000; stroke-width: 0px;"/>
    <path d="M8.34,165.85C5.22,158.41,2.42,150.83,0,143.14c-.08-.26,4.78-2.91,7.35-2.93,20.91-.16,36.34-13.13,53.64-21.64,13.55-7.01,26.64-13.4,38.53-21.21,2.42-1.83,4.32-3.89,6.23-5.3,1.77-1.34,3.16-2.34,3.65-3.46,1.56-3.39-5.92-9.89-9.21-12.89-13.44-9.9-6.74,18.89-16.22,18.54-4.65-.84-7.42-6.08-11.4-8.05-5.2-2.88-9.18,2.69-11.87,6.5-2.87,3.68-5.24,8.4-9.51,10.59-4.72,2.4-9.86-3.07-11.91-7.24-5.66-10.34-1.6-21.67,2.25-31.98,2.06-5.02,4.02-10.52,8.31-14.07,4.07-3.77,11.61,0,17.82,1.28,10.13,1.93,10.42-5.73,7.59-12.95-1.04-3.44-4.03-9,.48-10.86,7.55-1.49,15.62,7.47,16.98,14.73,1.68,5.5.16,12.61,3.71,17.32,3.39,4.29,11.47,3.74,14.26-1.12,1.97-3.21,2.13-7.37,2.48-11.1.68-11.36,2.74-22.99.49-33.95-.43-3.31-2.66-9.04,1.88-10.05,7.98.06,15.62,6.94,18.46,14.06,2.46,5.98,2.17,12.54,6.61,16.52,4.95,4.26,12.07,5.08,18.18,7.72,5.99,2.7,14.61,6.51,17.02,12.2,1.7,4.09.26,9.51,3.3,12.99,1.51,1.75,3.97,2.56,6.21,3.24,6.34,1.67,21.3,8.15,22.85,15.76-.24,5.36-13.93,4.07-18.09,4.88-10.52.63-20.27,4.61-29.96,8.57-5.73,2.31-11.47,4.67-17.17,7.02-1.96.83-4.5,1.94-5.63,3.43-5.23,8.94,28.82,18.09-10.35,43.15-2.71,2.04-8.39,4.65-6.14,8.38,2.31,3.13,9.54,5.73,6.82,10.62-2.75,5.16-13.57,5.89-14.44,11.31.03,1.53,1.77,3.08,4.45,4.54,12.84,6.61,21.46,7.7,22.72,24.22.85,6.24.14,12.61-2.88,18.24-5.79,9.77-19.51,43.74-32.63,40.75-4.63-1.03-9.42-6.46-11.98-11.22-9.43-15.57,20.67-28.05,6.01-30.25-5.34-.56-11.66-.36-15.96-4.14-5.67-4.52-7.8-13.42-3.21-19.46,2.46-3.58,6.7-6.27,10.02-8.86,1.56-1.23,2.6-2.29,2.83-3.22.42-2.86-5.49-3.97-7.73-5.4-6.53-3.12-10.48-10.36-7.68-15.75,2.42-4.97,9.44-6.58,11.2-11.91,1.06-3.29-.91-7.75-2.37-12.28-1.33-4.07-3.36-9.67-8.85-8.36-1.94.37-4.21,1.48-6.12,2.45-18.55,9.57-38.22,17.36-58.11,24.02-1.32.48-4.25.06-4.57-.69ZM98.87,151.51c2.98,3.61,11.33-9.24,13.94-11.74,3.56-4.65,8.03-9.41,8.89-15.07.34-4.13-4.31-5.51-7.79-5.11-6.37.55-12.74,5.15-15.18,11.16-2.09,5.04-2.65,16.3.07,20.66l.08.09ZM133.65,68.22c3.22-1.77,7.26-7.03,10.07-10.13,2.47-3.08,5.49-6.5,4.75-10.58-.83-4.03-5.93-7.57-9.74-7.55-4.76.19-5.5,5.78-6.15,9.48-.08,2.97-5.15,21.39.93,18.84l.13-.06ZM256.44,123.19c20.06-13.85-6.34-13.17-11.58-23.86-5.36-10.28,1.31-26.39-11.05-33.34-5.77-3.22-15.95-5.24-21.32-1.03-2.89,2.77-.64,8.08.7,11.86,2.97,8.06,3.17,16.67,3.24,25.15.48,10.76-.3,17.98-10.18,23.78-19.16,12.42-39.9,19.69-61.32,28.66-7.74,4.37,7.03,10.63,10.53,12.7,15.7,8.5,25.6-1.98,43.4-10.43,4.04-1.78,9.45-3.65,13.16-1.5,4.99,3.29,5.2,13.96,5.52,19.58,1.15,17.94-21.54,11.06-39.22,13.36-9.51,2.09.91,9.33,5.4,12.1,3.61,2.13,7.45,3.56,11.8,4.07,5.48,1.54,18.6-4.17,19.69,3.48.38,2.98,0,6.06.1,9.08,0,3.58.19,8.3-1.06,10.75-2.36,4.74-8.29.43-11.95.3-5.44.07-2.18,10.53-2.26,13.98.65,5.35,1.05,10.86,3.33,15.34,3.51,7.97,28.99,29.64,32.65,12.32.54-23.36-3.45-46.84-.88-70.18.83-9.39,3.11-18.65,4.65-27.94,1.56-9.62,2.87-19.29,4.69-28.84,1.12-7.83,5.13-14.67,11.79-19.28l.17-.13Z" style="fill: #000; stroke-width: 0px;"/>
    <path d="M1028.53,396.22c-.48-5.41-5.02-11.65,2.5-14.16,2.61-.98,6.96-2.02,8.7-3.97.99-1.24-1.45-.45-2.11-.21-10.43,3.5-31.25,10.85-33.4.85-.52-2.41.08-5.78,3.22-5.47,1.61.12,3.52.7,5.26.62,4,0,7.83-1.4,11.65-2.4,3.55-.96,6.83-1.27,10.54-1.94,2.39-.41,4.8-.84,7.23-1.12,4.58-.5,9.66-.64,13.63,1.86,1.91,1.22,4.88,4.29,4.14,6.35-1.28,2.21-9.46,1.02-17.5,3.61-2.46.83-5.89,2.23-7.05,3.95-.89,1.72,2.36,2.08,3.54,2.42,7.75,1.68,9.2,5.25,4.2,9.17-1.11,1.1-3.34,1.95-3.73,3.45.09,2.37,6.1,3.92,4.51,6.88-1.9,2.57-6.44,3.29-9.53,3.41-2.85.09-5.91-.47-8.45.92-2.08,1.07-2.84,3.53-2.17,5.68.69,2.55,2.14,5.01,4.91,4.67,9.28-2.37,21.67-9.3,28.75-.96,1.99,2.33,2.88,5.94,1.46,8.71-1.57,3.52-6.13,5.49-6.96,9.25-.51,2.4,1.26,4.8,2.85,6.59,1.47,1.64,3.19,4.13.88,5.41-3.42,1.53-12.05-5.48-13.91-8.33-4.08-5.45-.91-9.48,3.38-13.7.47-.54,2.37-2.44,1.36-2.94-2.78-.14-6.76,4.05-8.88,5.97-2.16,1.86-4.36,4.94-7.23,5.1-1.56.05-3.07-.84-4.31-1.76-4.45-3.33-7.46-6.29-8.02-11.35-.35-3.67-.08-8.17,2.6-11.01,1.24-1.36,2.87-2.34,4.35-3.41,1.21-.88,2.22-1.87,2.83-3.11,1.2-2.59,1.04-6.05.78-8.95v-.08ZM1032.97,359.75c.15,1.92-6.71,5.01-7.19,6.74-.3,1.44,2.73,1.36,4.47,1.3,3.46-.21,6.77-1.23,10.12-2.1,3.07-.83,7.29-1.66,6.59-5.26-3.26-10.84-16.78-10.82-26.89-10.23-3.61.89.16,4.62,2.14,5.63,1.78,1.01,4.03,1.6,6.16,2.08,1.84.51,4.02.55,4.59,1.79v.04Z" style="fill: #000; stroke-width: 0px;"/>
    <path d="M931.89,397.31c-2.48-1.58-15.49,7.16-18.47,8.55-4.59,2.42-9.96,4.83-14.65,6.58-3.82,1.52-7.18,1.38-10.22-1.77-4.91-4.8-4.68-9.42.4-13.91,2.91-2.4,6.95-2.88,10.23-4.65,2.47-.99,9.65-6.94,11.56-6.36.09.24-.67.93-1.77,1.73-3.7,2.67-7.42,5.33-9.73,9.41-.46.85-1.2,2.17-.71,3.01.48.67,2.2.05,3.08-.3,13.23-5.17,26.18-10.64,39.55-15.44,2.8-.98,5.75-1.61,8.52-2.63,2.01-.74,3.97-1.85,6.01-2.34,2.9-.75,5.82.39,8.14,2.07,1.5,1.08,3.05,2.44,3.28,3.36.31,1.32-1.6,1.59-2.6,1.9-5.91,1.6-14.11,3.44-19.16,7.19-1.86,1.45-2.44,3.24-3.06,5.76-1.6,6.58-3.08,13.26-4.18,19.94-.48,4.51-3.4,6.39-6.82,2.64-4.76-5.79-1.31-14.89.68-22.13.2-.81.49-2.05-.07-2.57l-.03-.03ZM931.07,356.32c2.24,2.69,2.6,5.03.24,7.71-1.98,2.29-4.1,4.48-6.08,6.78-2.33,2.56-4.35,5.46-6.49,8.12-.58.74-1.28,1.64-1.5,2.5-.41,2.45,5-.15,6.21-.76,1.73-.91,2.58-2.27,4.24-3.11,1.84-.84,4.49-1.28,6.47-2.28,3.89-2.02,7.81-4.01,11.68-6.03,9.33-5.2-5.55-12.33-10.43-14.94-2.2-1.11-4.33-2.13-5.98-2.91-.52-.23-1.09-.52-1.61-.54-.1,0-.16.04-.2.09-.07.13-.02.26.03.41.42,1.02,2.34,3.49,3.37,4.9l.05.07ZM926.77,430.91c-3.29,3-.17,8.29,3.2,9.88,1.8.78,4.02.37,6.29-.07,1.76-.35,3.5-.8,5.24-1.23,3.51-.86,7.18-1.82,10.82-1.15,4.01.66,6.09,3.5,9.88,3.87,1.4.15,3.07-.38,3.43-1.57.75-2.87-3-5.19-4.97-6.77-2.51-1.83-4.95-3.86-7.92-3.73-2.72.2-5.37,1.67-8.01,2.21-3.24.64-6.54,1.09-9.81,1.34-2.72.16-3.46-.33-4.56-2.7-.71-1.41-2.34-1.23-3.54-.14l-.06.05ZM939.44,425.57c.05.28.78.28,1.92.15,5.09-.69,10.15-1.27,13.22-4.9,1.98-2.35,3.34-5.31,4.15-8.25,1.2-4.74-1.06-7.09-5.29-10.21-1.31-.97-2.7-1.81-3.63-1.74-1.11.04-1.48,1.27-1.62,2.27-.74,7.88-.44,16.33-7.84,21.57-.58.51-.92.88-.9,1.1v.02Z" style="fill: #000; stroke-width: 0px;"/>
    <path d="M646.75,205.55c2.36-3.49,7.06-2.49,10.72.14,2.66,1.94,4.58,4.71,6.56,7.32,4.12,5.36,13.98,17.97,13.36,3.49-.07-3.35-.29-6.74-.43-10.08-.14-9.4-.74-15.64-10.13-19.14-5.61-2.01-12.87-5.42-17.89-4.45-7.63,1.86-10.45,10.88-14.89,16.58-4.84,7.26-8.93,13.87-12.65,21.56-3.1,6.36-6.62,12.7-9.7,19.14-2.14,4.1-4.31,9.18-8.18,11.79-5.45,3.28-9.17-1.29-8.29-7.29,1.22-8.61,6.75-17.6,9.92-25.04,5.45-10.51,10.41-21.39,15.57-32.34,2.93-6.04,6.1-11.27,8.58-17.05,1.61-3.69,2.82-7.43,4.08-11.23,4.61-14.42,13.05-27.63,19.61-41.23,4.29-8.16-.96-14.86-4.66-22.07-4.82-11.95-11.52-9.54-22.2-7.16-6.71,1.47-12.48,2.55-19.77.92-5.77-1.23-14.32-4.66-16.3-8.11-2.79-5.5,6.6-7.18,10.44-8.28,9.38-2.11,18.8-4.07,28.19-6.13,9.43-1.82,18.03-4.74,14.32-14.72-2.42-5.91-4.99-14.95,4.78-14.4,4.71.34,8.88,3.25,12.76,5.75,4.67,3.04,8.9,5.26,14.66,7.09,5.52,1.72,11.5,3.32,17.21,4.16,6.02.98,9.79-.41,9.46-7.43.13-7.75-2.57-21.81,2.44-27.38,3-3.22,8.29-3.1,11.95-1,7.15,3.84,6.53,14.37,10.82,21.09,3.63,7.78,18,16.01,8.82,23.58-5.68,3.84-13.08,5.26-16.65,11.78-4.3,6.86-5.99,17.49-10.85,20.15-2.1,1.29-4.57.62-5.94-1.31-3.46-4.68-1.74-12.16-4.01-16.86-4.13-8.23-15.78-4.11-21.94-.39-2.65,1.86-4.53,3.03-4.18,5.39,1.12,2.62,4.66,3.76,7.06,5.65,7.73,5.14,7.22,15.05,3.27,22.39-6.9,15.17-15.19,29.88-21.59,45.2-1.9,6.02,4.13,6.15,8.13,4.15,4.71-2.1,7.25-5.91,7.91-12.07.91-3.92-1.26-11.69,1.88-14.26,2.88-1.03,6.07,1.41,8.71,2.58,5.26,2.82,10.27,5.6,15.11,8.15,2.76,1.55,11.01,4.79,7.25-1.48-4.94-7-11.89-12.77-17.56-19.65-3.85-4.74.43-2.65,3.26-.94,31,18.79,49.14,49.39,73.37,75.4,4.16,4.72,8.51,9.39,11.25,15,4.63,8.96-.09,15.37-9.46,10.83-8.31-3.86-14.3-11.56-22-17.03-2.1-1.63-5.35-3.63-5.82-6.13-.47-2.05.73-4.52-.37-8.01-1.92-4.89-5.79-9.4-8.69-13.86-5.22-7.11-10.62-17.97-20.45-12.88-6.04,2.82-9.56,8.85-10.12,15.2-1.66,24.82-1.89,49.81-1.09,74.57.13,3.48.33,8.37-2.56,10.45-8.65,4.4-21.62-13.63-28.39-18.2-6.71-5.85-18.05-7.31-22.44-13.99-2.57-4.04-2.98-8.79-3.36-13.5-.2-4.42-1.15-10.66,1.06-14.23l.08-.12ZM732.01,231.45c4.01,6.89,9.57,12.88,14.47,19.18,4.54,5.6,9.02,11.49,16.16,13.49,3.5,1.05,8.52,1.18,10.62-1.98,4.84-13.7-23.92-31.39-37.87-38.98-8.92-4.94-6.84,2.15-3.49,8.1l.11.19Z" style="fill: #000; stroke-width: 0px;"/>
  </g>
  <path d="M1120,419.25c.08-15.17.15-30.34.23-45.52.01-2.01.06-4.02.08-6.03.01-1.28.21-2.54.84-3.65,1.21-2.15,2.72-3.75,5.64-3.69,6.07.13,12.15-.1,18.23.05,2.37.06,4.74-.04,7.11-.15,4.68-.2,9.37-.28,14.05-.07,8.18.38,16.35-.15,24.53-.2,3.21-.02,5.83.77,8,3.11.76.81,1.06,1.65,1.06,2.71.01,6.98.05,13.96.08,20.95.04,8.89.11,17.78.13,26.68.02,6.73.07,13.46-.04,20.19-.06,3.63-2.97,6-6.66,6-8.24,0-16.47.11-24.71.15-8.29.04-16.58-.07-24.87.09-4.16.08-8.31.2-12.48.1-2.11-.06-4.23.06-6.3-.39-2.93-.64-4.99-2.28-4.89-5.56.15-4.92.04-9.85.04-14.77-.02,0-.03,0-.05,0ZM1150.11,433.98c2.12.41,3.9.08,5.68.09,1,0,1.53-.41,1.66-1.37.22-1.6,1.25-2.44,2.8-2.84,1.06-.27,2.14-.31,3.22-.35,2.07-.07,2.37-.41,2.81-2.43,1.12-5.14,1.11-10.38,1.67-15.57.77-7.1.8-14.24,1.09-21.36.15-3.65.47-7.33-.29-10.97-.11-.51-.21-1.06-.83-1.13-.64-.08-1.05.35-1.31.88-.17.36-.33.74-.44,1.12-2.13,6.99-2.79,14.17-2.95,21.42-.11,5.07-.14,10.14-.2,15.21-.02,1.4-.66,2.27-2.13,2.51-1.52.25-2.13-.71-2.62-1.82-.36-.8-.27-1.68-.32-2.53-.43-7.44.16-14.86.71-22.27.3-4.11,1.04-8.18,1.96-12.19.72-3.11,1.95-6.12,4.4-8.5,1.98-1.92,4.06-3.7,6.36-5.24.9-.6,1.31-1.38,1.06-2.45-.26-1.12-1.24-1.15-2.08-1.17-2.26-.04-4.53.03-6.8.04-5.41.02-10.82,0-16.22.04-1.68.01-2.13.6-2.15,2.26-.02,1.57,1.05,1.62,2.19,1.62.57,0,1.13-.02,1.7-.06,3.09-.22,6.17-.13,9.24.32,1.52.22,2.6,1.22,2.52,2.37-.11,1.4-1.12,2.22-2.74,2.25-2.01.04-4.02.09-6.03.14-2.73.07-3.05.37-3.27,3.03-.35,4.11-.39,8.22-.35,12.35.04,3.61-.34,7.14-3.2,9.9-.42.41-.65,1.01-.91,1.55-.36.75-.3,1.4.38,2.04.71.66,1.39.67,2.25.39,2.62-.86,3.89-2.64,4.01-5.28.08-1.7.19-3.41.24-5.11.13-4.47.22-8.94.34-13.41.03-1.01.24-1.88,1.4-2.25,2.17-.69,3.64.34,3.59,2.62-.09,4.47-.33,8.94-.27,13.4.04,3.09-.95,6.05-.88,9.13,0,.4-.32.83-.55,1.22-1.7,2.85-4.6,3.88-7.6,4.74-2.6.75-3.08,1.3-3.02,3.92.02.9.05,1.82.26,2.69.32,1.37,1.36,1.95,2.78,1.76,1.31-.17,1.93-.82,2.1-2.15.29-2.35,1.73-3.6,3.68-3.46,1.56.11,2.35,1.23,2.4,3.63.08,3.87.2,7.74.12,11.6-.06,2.73-.53,5.4-2.64,7.52-.75.76-1.8,1.11-2.8,2.14ZM1195.79,381.36c.08-5.47-.19-10.14-.43-14.8-.1-2.02-.71-2.87-2.54-3.01-4.15-.31-8.32-.62-12.49-.32-.67.05-1.4.07-1.65.85-.26.82-.17,1.61.51,2.22.45.41.92.81,1.46,1.1,7,3.74,10.42,9.66,11.44,17.23.52,3.83.72,7.71,1.45,11.51,1.22,6.38.46,12.84.97,19.25.11,1.35-.65,2.13-2.1,2.3-1.81.22-2.9-.24-3.41-1.58-.28-.72-.29-1.47-.26-2.23.39-9.28-.47-18.47-2.17-27.58-.43-2.31-1.21-4.57-1.88-6.83-.15-.49-.33-1.18-1.08-1.08-.72.1-.72.81-.79,1.32-.16,1.34-.35,2.7-.33,4.05.05,4.87.23,9.73.4,14.6.33,9.2,1.26,18.35,1.81,27.52.2,3.41.27,3.32,3.68,3.6,2.39.2,5.17-.05,5.65,3.37.11.77.69.59,1.1.1.35-.42.37-.92.38-1.43.12-5.88.3-11.75.35-17.63.09-11.1.13-22.2-.06-32.52ZM1132.22,433.85c-3.03-1.45-4.23-4.04-4.58-6.98-.59-4.99-.78-10.01-.04-15.02.29-1.96,1.26-2.78,3.19-2.74,1.92.04,2.66.74,2.94,2.76.05.4.11.8.16,1.19.2,1.52,1.32,1.93,2.63,2.04,1.41.12,1.92-.88,2.12-1.95.19-1.03.17-2.1.16-3.15-.01-2.52-.97-3.4-3.54-3.85-2.06-.36-4.22-.83-5.66-2.47-1.79-2.04-2.75-4.46-2.74-7.19.02-6.13.04-12.25.11-18.38.02-1.79.83-2.62,2.29-2.6,1.93.03,2.73.77,2.8,2.59.03.7,0,1.41-.01,2.11-.18,5.12-.2,10.24.26,15.36.22,2.5,1.26,4.51,3.52,5.86,1.36.82,2.68.46,3.07-1.04.27-1.03.28-2.08-.71-2.9-.95-.78-1.81-1.66-2.19-2.86-.75-2.42-1.2-4.86-1.13-7.41.12-4.22.35-8.44-.16-12.65-.22-1.8-.9-2.38-2.73-2.38-2.21,0-4.43.07-6.64.05-1.43-.02-2,.55-2,1.98-.05,9.99-.17,19.98-.24,29.98-.04,5.77-.05,11.55-.01,17.33.02,3.31.14,6.63.25,9.94.04,1.25.48,2.32,1.93,2.53,2.29.34,4.58.23,6.94-.15ZM1172.53,422.5c.04.9.11,1.81.11,2.71,0,4.51.04,3.65,3.97,3.91,1.54.1,2.05-.44,2.02-1.95-.07-3.41-.06-6.83-.27-10.24-.65-10.23-.57-20.48-.91-30.72-.13-3.9-.32-7.84.9-11.66.36-1.14.14-2.26-1.03-2.89-1.15-.63-2.4-.64-3.51.11-1.08.73-1.21,1.81-.86,2.96.71,2.29.78,4.64.92,7,.25,4.52-.1,9.04-.26,13.55-.16,4.92.36,9.86-.21,14.75-.48,4.15-.84,8.29-.87,12.48ZM1139.34,420.21c-1.77.07-2.96.11-4.14.18-.52.03-1,.18-1.32.66-1.32,1.94.01,6.09,2.29,6.85,2.87.95,5.78,1.36,8.8.57,3.19-.84,4.83-2.98,4.55-6.21-.13-1.47-.76-2.04-2.28-2.04-2.83,0-5.66,0-7.9,0ZM1143.27,380.84c.09-1.29.04-3.29-.13-5.29-.08-.93-.04-2.22-1.26-2.27-1.31-.06-1.26,1.31-1.32,2.17-.38,4.95-.53,9.91-.47,14.87,0,.4.04.81.15,1.19.17.57.62.92,1.22,1.03.59.11.77-.41,1.05-.74.54-.66.64-1.45.71-2.26.24-2.66-.01-5.32.05-8.69ZM1132,363.32s0-.08,0-.13c-1.64.07-3.29.14-4.93.21-.96.04-1.81.37-2.54.98-.93.77-.9,1.86-.53,2.77.36.89,1.28.27,1.9.12.91-.22,1.83-.32,2.75-.34,2.83-.04,5.65-.26,8.48-.02,1.16.1,2.08-.14,2.09-1.54.02-1.59-.49-2.25-1.98-2.25-1.75,0-3.49.13-5.24.2Z" style="fill: #c82828; stroke-width: 0px;"/>
</svg>